<svg xmlns="http://www.w3.org/2000/svg" version="1.1" xmlns:xlink="http://www.w3.org/1999/xlink" xmlns:svgjs="http://svgjs.dev/svgjs" width="1080.0px" height="1080.0px"><svg height="1080.0px" stroke-miterlimit="10" style="fill-rule:nonzero;clip-rule:evenodd;stroke-linecap:round;stroke-linejoin:round;" version="1.1" viewBox="0 0 1080 1080" width="1080.0px" xml:space="preserve" xmlns="http://www.w3.org/2000/svg" xmlns:xlink="http://www.w3.org/1999/xlink">
<defs></defs>
<g id="SvgjsG1001">
<path d="M540 219.345C538.506 219.345 536.995 219.507 535.526 219.731C520.857 222.296 501.367 232.041 471.881 246.809C424.039 270.767 351.704 331.897 294.523 333.366C287.177 333.565 280.179 336.841 275.198 342.469C270.168 348.098 267.573 355.614 267.947 363.26C280.25 612.877 369.749 767.364 526.847 857.145C530.931 859.461 535.467 860.655 540 860.655C544.533 860.655 549.069 859.461 553.153 857.145C710.25 767.364 799.751 612.877 812.053 363.26C812.427 355.614 809.832 348.098 804.802 342.469C799.821 336.816 792.848 333.565 785.477 333.366C728.321 331.872 655.974 270.753 608.158 246.77C578.621 232.002 559.143 222.257 544.474 219.692C542.98 219.493 541.494 219.345 540 219.345ZM574.021 411.823C586.891 411.823 597.358 422.289 597.358 435.159L597.358 644.841C597.357 657.711 586.891 668.177 574.021 668.177C561.151 668.177 550.762 657.711 550.762 644.841L550.762 435.159C550.762 422.289 561.151 411.823 574.021 411.823ZM480.868 458.419C493.738 458.419 504.127 468.846 504.127 481.717L504.127 598.283C504.127 611.154 493.738 621.581 480.868 621.581C467.998 621.581 457.532 611.154 457.532 598.283L457.532 481.717C457.532 468.846 467.998 458.419 480.868 458.419ZM667.251 481.717C680.122 481.717 690.626 492.183 690.626 505.053L690.626 598.283C690.626 611.154 680.122 621.581 667.251 621.581C654.381 621.581 643.992 611.154 643.992 598.283L643.992 505.053C643.992 492.183 654.381 481.717 667.251 481.717ZM387.638 505.053C400.508 505.053 410.897 515.442 410.897 528.312L410.897 574.947C410.897 587.817 400.508 598.283 387.638 598.283C374.768 598.283 364.34 587.817 364.34 574.947L364.34 528.312C364.34 515.442 374.768 505.053 387.638 505.053Z" fill="#2563eb" fill-rule="nonzero" opacity="1" stroke="none"></path>
</g>
</svg><style>@media (prefers-color-scheme: light) { :root { filter: none; } }
@media (prefers-color-scheme: dark) { :root { filter: none; } }
</style></svg>